<svg xmlns="http://www.w3.org/2000/svg" xmlns:xlink="http://www.w3.org/1999/xlink" contentScriptType="application/ecmascript" contentStyleType="text/css" height="310px" preserveAspectRatio="none" style="width:319px;height:310px;" version="1.1" viewBox="0 0 319 310" width="319px" zoomAndPan="magnify"><defs><filter height="300%" id="f1hb7fe7sdovy7" width="300%" x="-1" y="-1"><feGaussianBlur result="blurOut" stdDeviation="2.0"/><feColorMatrix in="blurOut" result="blurOut2" type="matrix" values="0 0 0 0 0 0 0 0 0 0 0 0 0 0 0 0 0 0 .4 0"/><feOffset dx="4.0" dy="4.0" in="blurOut2" result="blurOut3"/><feBlend in="SourceGraphic" in2="blurOut3" mode="normal"/></filter></defs><g><line style="stroke: #A80036; stroke-width: 1.0; stroke-dasharray: 5.0,5.0;" x1="28" x2="28" y1="86.2969" y2="222.8281"/><line style="stroke: #A80036; stroke-width: 1.0; stroke-dasharray: 5.0,5.0;" x1="133" x2="133" y1="86.2969" y2="222.8281"/><line style="stroke: #A80036; stroke-width: 1.0; stroke-dasharray: 5.0,5.0;" x1="188" x2="188" y1="86.2969" y2="222.8281"/><line style="stroke: #A80036; stroke-width: 1.0; stroke-dasharray: 5.0,5.0;" x1="239" x2="239" y1="86.2969" y2="222.8281"/><line style="stroke: #A80036; stroke-width: 1.0; stroke-dasharray: 5.0,5.0;" x1="289" x2="289" y1="86.2969" y2="222.8281"/><text fill="#000000" font-family="sans-serif" font-size="14" lengthAdjust="spacingAndGlyphs" textLength="35" x="8" y="82.9951">Foo1</text><ellipse cx="28.5" cy="13" fill="#FEFECE" filter="url(#f1hb7fe7sdovy7)" rx="8" ry="8" style="stroke: #A80036; stroke-width: 2.0;"/><path d="M28.5,21 L28.5,48 M15.5,29 L41.5,29 M28.5,48 L15.5,63 M28.5,48 L41.5,63 " fill="none" filter="url(#f1hb7fe7sdovy7)" style="stroke: #A80036; stroke-width: 2.0;"/><text fill="#000000" font-family="sans-serif" font-size="14" lengthAdjust="spacingAndGlyphs" textLength="35" x="8" y="234.8232">Foo1</text><ellipse cx="28.5" cy="248.125" fill="#FEFECE" filter="url(#f1hb7fe7sdovy7)" rx="8" ry="8" style="stroke: #A80036; stroke-width: 2.0;"/><path d="M28.5,256.125 L28.5,283.125 M15.5,264.125 L41.5,264.125 M28.5,283.125 L15.5,298.125 M28.5,283.125 L41.5,298.125 " fill="none" filter="url(#f1hb7fe7sdovy7)" style="stroke: #A80036; stroke-width: 2.0;"/><text fill="#000000" font-family="sans-serif" font-size="14" lengthAdjust="spacingAndGlyphs" textLength="34" x="113.5" y="82.9951">Foo2</text><path d="M113,42 L113,66 M113,54 L130,54 " fill="none" filter="url(#f1hb7fe7sdovy7)" style="stroke: #A80036; stroke-width: 2.0;"/><ellipse cx="142" cy="54" fill="#FEFECE" filter="url(#f1hb7fe7sdovy7)" rx="12" ry="12" style="stroke: #A80036; stroke-width: 2.0;"/><text fill="#000000" font-family="sans-serif" font-size="14" lengthAdjust="spacingAndGlyphs" textLength="34" x="113.5" y="234.8232">Foo2</text><path d="M113,242.125 L113,266.125 M113,254.125 L130,254.125 " fill="none" filter="url(#f1hb7fe7sdovy7)" style="stroke: #A80036; stroke-width: 2.0;"/><ellipse cx="142" cy="254.125" fill="#FEFECE" filter="url(#f1hb7fe7sdovy7)" rx="12" ry="12" style="stroke: #A80036; stroke-width: 2.0;"/><text fill="#000000" font-family="sans-serif" font-size="14" lengthAdjust="spacingAndGlyphs" textLength="35" x="168" y="82.9951">Foo3</text><ellipse cx="188.5" cy="54" fill="#FEFECE" filter="url(#f1hb7fe7sdovy7)" rx="12" ry="12" style="stroke: #A80036; stroke-width: 2.0;"/><polygon fill="#A80036" points="184.5,42,190.5,37,188.5,42,190.5,47,184.5,42" style="stroke: #A80036; stroke-width: 1.0;"/><text fill="#000000" font-family="sans-serif" font-size="14" lengthAdjust="spacingAndGlyphs" textLength="35" x="168" y="234.8232">Foo3</text><ellipse cx="188.5" cy="254.125" fill="#FEFECE" filter="url(#f1hb7fe7sdovy7)" rx="12" ry="12" style="stroke: #A80036; stroke-width: 2.0;"/><polygon fill="#A80036" points="184.5,242.125,190.5,237.125,188.5,242.125,190.5,247.125,184.5,242.125" style="stroke: #A80036; stroke-width: 1.0;"/><text fill="#000000" font-family="sans-serif" font-size="14" lengthAdjust="spacingAndGlyphs" textLength="34" x="219" y="82.9951">Foo4</text><ellipse cx="239" cy="54" fill="#FEFECE" filter="url(#f1hb7fe7sdovy7)" rx="12" ry="12" style="stroke: #A80036; stroke-width: 2.0;"/><line style="stroke: #A80036; stroke-width: 2.0;" x1="227" x2="251" y1="68" y2="68"/><text fill="#000000" font-family="sans-serif" font-size="14" lengthAdjust="spacingAndGlyphs" textLength="34" x="219" y="234.8232">Foo4</text><ellipse cx="239" cy="254.125" fill="#FEFECE" filter="url(#f1hb7fe7sdovy7)" rx="12" ry="12" style="stroke: #A80036; stroke-width: 2.0;"/><line style="stroke: #A80036; stroke-width: 2.0;" x1="227" x2="251" y1="268.125" y2="268.125"/><text fill="#000000" font-family="sans-serif" font-size="14" lengthAdjust="spacingAndGlyphs" textLength="35" x="269" y="82.9951">Foo5</text><path d="M271.5,34 C271.5,24 289.5,24 289.5,24 C289.5,24 307.5,24 307.5,34 L307.5,60 C307.5,70 289.5,70 289.5,70 C289.5,70 271.5,70 271.5,60 L271.5,34 " fill="#FEFECE" filter="url(#f1hb7fe7sdovy7)" style="stroke: #000000; stroke-width: 1.5;"/><path d="M271.5,34 C271.5,44 289.5,44 289.5,44 C289.5,44 307.5,44 307.5,34 " fill="none" style="stroke: #000000; stroke-width: 1.5;"/><text fill="#000000" font-family="sans-serif" font-size="14" lengthAdjust="spacingAndGlyphs" textLength="35" x="269" y="234.8232">Foo5</text><path d="M271.5,248.125 C271.5,238.125 289.5,238.125 289.5,238.125 C289.5,238.125 307.5,238.125 307.5,248.125 L307.5,274.125 C307.5,284.125 289.5,284.125 289.5,284.125 C289.5,284.125 271.5,284.125 271.5,274.125 L271.5,248.125 " fill="#FEFECE" filter="url(#f1hb7fe7sdovy7)" style="stroke: #000000; stroke-width: 1.5;"/><path d="M271.5,248.125 C271.5,258.125 289.5,258.125 289.5,258.125 C289.5,258.125 307.5,258.125 307.5,248.125 " fill="none" style="stroke: #000000; stroke-width: 1.5;"/><polygon fill="#A80036" points="121.5,113.4297,131.5,117.4297,121.5,121.4297,125.5,117.4297" style="stroke: #A80036; stroke-width: 1.0;"/><line style="stroke: #A80036; stroke-width: 1.0;" x1="28.5" x2="127.5" y1="117.4297" y2="117.4297"/><text fill="#000000" font-family="sans-serif" font-size="13" lengthAdjust="spacingAndGlyphs" textLength="81" x="35.5" y="112.3638">To boundary</text><polygon fill="#A80036" points="176.5,142.5625,186.5,146.5625,176.5,150.5625,180.5,146.5625" style="stroke: #A80036; stroke-width: 1.0;"/><line style="stroke: #A80036; stroke-width: 1.0;" x1="28.5" x2="182.5" y1="146.5625" y2="146.5625"/><text fill="#000000" font-family="sans-serif" font-size="13" lengthAdjust="spacingAndGlyphs" textLength="64" x="35.5" y="141.4966">To control</text><polygon fill="#A80036" points="227,171.6953,237,175.6953,227,179.6953,231,175.6953" style="stroke: #A80036; stroke-width: 1.0;"/><line style="stroke: #A80036; stroke-width: 1.0;" x1="28.5" x2="233" y1="175.6953" y2="175.6953"/><text fill="#000000" font-family="sans-serif" font-size="13" lengthAdjust="spacingAndGlyphs" textLength="57" x="35.5" y="170.6294">To entity</text><polygon fill="#A80036" points="277.5,200.8281,287.5,204.8281,277.5,208.8281,281.5,204.8281" style="stroke: #A80036; stroke-width: 1.0;"/><line style="stroke: #A80036; stroke-width: 1.0;" x1="28.5" x2="283.5" y1="204.8281" y2="204.8281"/><text fill="#000000" font-family="sans-serif" font-size="13" lengthAdjust="spacingAndGlyphs" textLength="80" x="35.5" y="199.7622">To database</text><!--MD5=[3570bf63925b7c864f39d898af10f038]\n@startuml\r\nactor Foo1\r\nboundary Foo2\r\ncontrol Foo3\r\nentity Foo4\r\ndatabase Foo5\r\nFoo1 -> Foo2 : To boundary\r\nFoo1 -> Foo3 : To control\r\nFoo1 -> Foo4 : To entity\r\nFoo1 -> Foo5 : To database\r\n@enduml\r\n\nPlantUML version 1.2020.09beta17(Unknown compile time)\n(GPL source distribution)\nJava Runtime: Java(TM) SE Runtime Environment\nJVM: Java HotSpot(TM) 64-Bit Server VM\nJava Version: 14.0.1+7\nOperating System: Linux\nDefault Encoding: UTF-8\nLanguage: en\nCountry: US\n--></g></svg>